<svg width="157" height="193" viewBox="0 0 157 193" fill="none" xmlns="http://www.w3.org/2000/svg">
<g opacity="0.08" clip-path="url(#clip0_7611_250651)">
<path d="M147.542 178.242C147.542 190.25 137.767 200 125.783 200C113.775 200 104 190.225 104 178.242C104 166.234 113.775 156.483 125.758 156.483C137.767 156.459 147.542 166.234 147.542 178.242ZM113.651 178.242C113.651 184.916 119.085 190.349 125.758 190.349C132.432 190.349 137.866 184.916 137.866 178.242C137.866 171.568 132.432 166.135 125.758 166.135C119.085 166.135 113.651 171.543 113.651 178.242Z" fill="#383838"/>
<path d="M147.542 123.758C147.542 135.767 137.767 145.517 125.783 145.517C113.775 145.542 104 135.767 104 123.758C104 111.775 113.775 102 125.758 102C137.767 102 147.542 111.775 147.542 123.758ZM113.651 123.758C113.651 130.432 119.085 135.866 125.758 135.866C132.432 135.866 137.866 130.432 137.866 123.758C137.866 117.085 132.432 111.651 125.758 111.651C119.085 111.651 113.651 117.085 113.651 123.758Z" fill="#383838"/>
</g>
<g opacity="0.06" clip-path="url(#clip1_7611_250651)">
<path d="M10.3733 98.0001C16.1023 98.0001 20.7465 93.357 20.7465 87.6294C20.7465 81.9019 16.1023 77.2588 10.3733 77.2588C4.64427 77.2588 0 81.9019 0 87.6294C0 93.357 4.64427 98.0001 10.3733 98.0001Z" fill="#383838"/>
<path d="M33.4277 98.0004H43.528C43.528 74.009 23.9975 54.4834 0 54.4834V64.5811C18.4386 64.5811 33.4277 79.5664 33.4277 98.0004Z" fill="#383838"/>
<path d="M10.3733 20.7413C16.1023 20.7413 20.7465 16.0982 20.7465 10.3706C20.7465 4.64309 16.1023 0 10.3733 0C4.64427 0 0 4.64309 0 10.3706C0 16.0982 4.64427 20.7413 10.3733 20.7413Z" fill="#383838"/>
<path d="M0 33.4192V43.517C23.9975 43.517 43.528 23.9914 43.528 0H33.4277C33.4277 18.4339 18.4386 33.4192 0 33.4192Z" fill="#383838"/>
<path d="M87.6018 20.7413C93.3308 20.7413 97.975 16.0982 97.975 10.3706C97.975 4.64309 93.3308 0 87.6018 0C81.8728 0 77.2285 4.64309 77.2285 10.3706C77.2285 16.0982 81.8728 20.7413 87.6018 20.7413Z" fill="#383838"/>
<path d="M64.572 0H54.4717C54.4717 23.9914 74.0022 43.517 97.9997 43.517V33.4192C79.5611 33.4192 64.572 18.4339 64.572 0Z" fill="#383838"/>
<path d="M87.6018 98.0001C93.3308 98.0001 97.975 93.357 97.975 87.6294C97.975 81.9019 93.3308 77.2588 87.6018 77.2588C81.8728 77.2588 77.2285 81.9019 77.2285 87.6294C77.2285 93.357 81.8728 98.0001 87.6018 98.0001Z" fill="#383838"/>
<path d="M97.9997 64.5811V54.4834C74.0022 54.4834 54.4717 74.009 54.4717 98.0004H64.572C64.572 79.5664 79.5611 64.5811 97.9997 64.5811Z" fill="#383838"/>
</g>
<g opacity="0.08" clip-path="url(#clip2_7611_250651)">
<path d="M153.012 65.3949C162.06 65.3949 169.395 58.06 169.395 49.0119C169.395 39.9638 162.06 32.6289 153.012 32.6289C143.964 32.6289 136.629 39.9638 136.629 49.0119C136.629 58.06 143.964 65.3949 153.012 65.3949Z" fill="#383838"/>
<path d="M153.011 0C125.974 0 104 21.9738 104 49.0115V87.5974V98.0229H114.426H153.011C180.026 98.0229 202.023 76.0491 202.023 49.0115C202.023 21.9738 180.026 0 153.011 0ZM153.011 87.5974H114.426V49.0115C114.426 27.725 131.725 10.4255 153.011 10.4255C174.298 10.4255 191.597 27.725 191.597 49.0115C191.597 70.275 174.275 87.5974 153.011 87.5974Z" fill="#383838"/>
</g>
<g opacity="0.06" clip-path="url(#clip3_7611_250651)">
<path d="M87.1549 199.975C93.1306 199.975 97.9749 195.131 97.9749 189.155C97.9749 183.179 93.1306 178.335 87.1549 178.335C81.1792 178.335 76.335 183.179 76.335 189.155C76.335 195.131 81.1792 199.975 87.1549 199.975Z" fill="#383838"/>
<path d="M97.9997 166.572V156.472C74.0022 156.472 54.4717 176.002 54.4717 200H64.572C64.572 181.561 79.5611 166.572 97.9997 166.572Z" fill="#383838"/>
<path d="M37.6214 200H27.124C27.124 181.065 34.4945 163.272 47.8705 149.896C61.2466 136.52 79.04 129.149 97.9749 129.149V139.647C81.8442 139.647 66.6814 145.925 55.2906 157.341C43.8999 168.707 37.6214 183.87 37.6214 200Z" fill="#383838"/>
<path d="M10.4229 200H0C0 186.773 2.58091 173.943 7.69309 161.857C12.6316 150.193 19.7042 139.696 28.6878 130.713C37.6713 121.729 48.1687 114.632 59.8572 109.693C71.9428 104.581 84.7729 102 98 102V112.423C74.5981 112.423 52.6108 121.531 36.0831 138.083C19.5553 154.636 10.4229 176.598 10.4229 200Z" fill="#383838"/>
</g>
<defs>
<clipPath id="clip0_7611_250651">
<rect width="98.0248" height="98" fill="white" transform="translate(104 102)"/>
</clipPath>
<clipPath id="clip1_7611_250651">
<rect width="98" height="98" fill="white"/>
</clipPath>
<clipPath id="clip2_7611_250651">
<rect width="98" height="98" fill="white" transform="translate(104)"/>
</clipPath>
<clipPath id="clip3_7611_250651">
<rect width="98" height="98" fill="white" transform="translate(0 102)"/>
</clipPath>
</defs>
</svg>
