<svg width="20" height="21" viewBox="0 0 20 21" fill="none" xmlns="http://www.w3.org/2000/svg">
<path d="M10.5463 14.0666L16.7763 8.17509C16.9206 8.03883 17 7.85693 17 7.66297C17 7.46902 16.9206 7.28712 16.7763 7.15086L16.3176 6.71699C16.0188 6.43467 15.533 6.43467 15.2345 6.71699L10.0029 11.6642L4.76547 6.7115C4.62126 6.57523 4.42901 6.5 4.22402 6.5C4.0188 6.5 3.82656 6.57523 3.68224 6.7115L3.22366 7.14537C3.07945 7.28174 3 7.46353 3 7.65748C3 7.85144 3.07945 8.03334 3.22366 8.1696L9.45941 14.0666C9.60408 14.2032 9.79723 14.2782 10.0026 14.2778C10.2087 14.2782 10.4017 14.2032 10.5463 14.0666Z" fill="white"/>
</svg>
