<svg width="18" height="18" viewBox="0 0 18 18" fill="none" xmlns="http://www.w3.org/2000/svg">
<path d="M5.58015e-09 5.89919L8.5232 10.332C8.6087 10.3764 8.70364 10.3997 8.8 10.3997C8.89636 10.3997 8.99131 10.3764 9.0768 10.332L17.6 5.89999V13.6C17.6 14.2641 17.346 14.9031 16.8899 15.3858C16.4338 15.8685 15.8102 16.1584 15.1472 16.196L15 16.2H2.6C1.93589 16.2 1.29694 15.9459 0.814215 15.4899C0.331494 15.0338 0.0415989 14.4102 0.0040001 13.7472L5.58015e-09 13.6V5.89919ZM2.6 1.79999H15C15.6641 1.79994 16.3031 2.05403 16.7858 2.51012C17.2685 2.96622 17.5584 3.58974 17.596 4.25279L17.6 4.39999V4.54719L8.8 9.12319L5.58015e-09 4.54719V4.39999C-4.34774e-05 3.73588 0.254043 3.09693 0.710137 2.6142C1.16623 2.13148 1.78976 1.84159 2.4528 1.80399L2.6 1.79999H15H2.6Z" fill="white"/>
</svg>
