<svg width="18" height="18" viewBox="0 0 18 18" fill="none" xmlns="http://www.w3.org/2000/svg">
<path d="M9 1.1001C8.60813 1.10009 8.21597 1.20099 7.86621 1.40479V1.40625L2.24414 4.68603C1.78415 4.95424 1.5 5.44851 1.5 5.98096V13.5C1.5 14.3198 2.1802 15 3 15H15C15.8198 15 16.5 14.3198 16.5 13.5V5.98096C16.5 5.44922 16.2157 4.95417 15.7559 4.68603L10.1338 1.40625C9.78418 1.20222 9.39187 1.1001 9 1.1001ZM9 2.59863C9.13037 2.59869 9.26104 2.63296 9.37793 2.70117L15 5.98096V5.98242V6.01758L9.79248 9.25781C9.30723 9.56006 8.69277 9.56006 8.20752 9.25781L3 6.01758V5.98096L8.62207 2.70117C8.73956 2.63271 8.86963 2.59857 9 2.59863ZM9 3.90527C8.90391 3.90527 8.80799 3.94201 8.73486 4.01514L7.39014 5.35986C7.15389 5.59611 7.32077 6 7.65527 6H8.25V7.5C8.25 7.914 8.586 8.25 9 8.25C9.414 8.25 9.75 7.914 9.75 7.5V6H10.3447C10.6792 6 10.8461 5.59611 10.6099 5.35986L9.26514 4.01514C9.19164 3.94201 9.09609 3.90527 9 3.90527Z" fill="white"/>
</svg>
