<svg width="19" height="19" viewBox="0 0 19 19" fill="none" xmlns="http://www.w3.org/2000/svg">
<path d="M9.36159 16.5962C7.52027 16.5962 7.30321 16.5865 6.58464 16.555C6.02429 16.5366 5.47119 16.4227 4.94916 16.2182C4.50244 16.0443 4.09675 15.7795 3.75786 15.4405C3.41897 15.1015 3.15428 14.6957 2.9806 14.2489C2.78397 13.725 2.67792 13.1714 2.66698 12.6119C2.62506 11.8948 2.62506 11.6598 2.62506 9.83272C2.62506 7.98616 2.63479 7.77059 2.66698 7.05577C2.67816 6.49703 2.78421 5.94425 2.9806 5.42104C3.15408 4.97369 3.41895 4.56743 3.75829 4.22822C4.09763 3.889 4.50399 3.62429 4.95141 3.45098C5.47435 3.25353 6.02727 3.1472 6.58614 3.13661C7.30096 3.09619 7.53599 3.09619 9.36159 3.09619C11.2179 3.09619 11.4312 3.10592 12.1385 3.13661C12.6984 3.14709 13.2538 3.25338 13.7778 3.45098C14.2251 3.62449 14.6313 3.88928 14.9706 4.22846C15.3099 4.56765 15.5749 4.97381 15.7486 5.42104C15.9484 5.95248 16.0554 6.51386 16.0637 7.08047C16.1056 7.79754 16.1056 8.03182 16.1056 9.85817C16.1056 11.6845 16.0951 11.924 16.0637 12.6329C16.0525 13.1929 15.9462 13.7469 15.7493 14.2713C15.5752 14.7184 15.31 15.1245 14.9706 15.4636C14.6312 15.8027 14.225 16.0676 13.7778 16.2414C13.2538 16.4375 12.7007 16.5438 12.1415 16.555C11.4267 16.5962 11.1924 16.5962 9.36159 16.5962ZM9.33614 4.28107C7.5053 4.28107 7.31518 4.29005 6.60036 4.32224C6.17345 4.32782 5.75066 4.40656 5.35036 4.55502C5.05839 4.66694 4.79312 4.83879 4.57163 5.0595C4.35014 5.28021 4.17737 5.54489 4.06443 5.83646C3.91473 6.24065 3.83614 6.66805 3.83165 7.09919C3.79198 7.82448 3.79198 8.01461 3.79198 9.83272C3.79198 11.6291 3.79871 11.8469 3.83165 12.5677C3.83838 12.9944 3.91698 13.4173 4.06443 13.8177C4.29347 14.4068 4.76054 14.8724 5.35111 15.0984C5.75089 15.2478 6.1736 15.3266 6.60036 15.3312C7.32491 15.3731 7.51578 15.3731 9.33614 15.3731C11.1722 15.3731 11.3623 15.3642 12.0712 15.3312C12.4981 15.3261 12.921 15.2473 13.3212 15.0984C13.6116 14.9857 13.8753 14.8137 14.0957 14.5935C14.3161 14.3733 14.4882 14.1096 14.6011 13.8192C14.7508 13.4151 14.8294 12.9869 14.8339 12.5558H14.8421C14.8743 11.8402 14.8743 11.6493 14.8743 9.82074C14.8743 7.99215 14.8661 7.79978 14.8339 7.08496C14.8271 6.65866 14.7484 6.23656 14.6011 5.83646C14.4884 5.5457 14.3164 5.2816 14.0961 5.06097C13.8757 4.84035 13.6118 4.66804 13.3212 4.55502C12.9207 4.40532 12.4978 4.32748 12.0712 4.32224C11.3474 4.28107 11.158 4.28107 9.33614 4.28107ZM9.36159 13.2901C8.67714 13.2905 8.00793 13.0879 7.4386 12.708C6.86927 12.3281 6.4254 11.7879 6.16313 11.1557C5.90086 10.5235 5.83197 9.82767 5.96517 9.1563C6.09838 8.48494 6.42769 7.86815 6.91146 7.38396C7.39523 6.89977 8.01173 6.56993 8.68298 6.43614C9.35423 6.30236 10.0501 6.37064 10.6825 6.63237C11.315 6.89409 11.8556 7.33749 12.236 7.90649C12.6164 8.47549 12.8195 9.14452 12.8197 9.82898C12.8185 10.746 12.4539 11.6252 11.8057 12.274C11.1575 12.9227 10.2786 13.2881 9.36159 13.2901ZM9.36159 7.58197C8.91747 7.58197 8.48332 7.71367 8.11405 7.96041C7.74478 8.20715 7.45697 8.55785 7.28701 8.96816C7.11705 9.37847 7.07258 9.82997 7.15923 10.2656C7.24587 10.7011 7.45973 11.1013 7.77377 11.4153C8.08781 11.7293 8.48793 11.9432 8.92351 12.0298C9.3591 12.1165 9.81059 12.072 10.2209 11.9021C10.6312 11.7321 10.9819 11.4443 11.2287 11.075C11.4754 10.7057 11.6071 10.2716 11.6071 9.82748C11.6057 9.23236 11.3687 8.66201 10.9479 8.24119C10.5271 7.82038 9.95671 7.58335 9.36159 7.58197ZM12.9544 7.04829C12.8484 7.04789 12.7436 7.02663 12.6458 6.98572C12.5481 6.94481 12.4594 6.88504 12.3847 6.80984C12.234 6.65796 12.1497 6.45241 12.1505 6.23841C12.1513 6.02441 12.2371 5.81949 12.389 5.66873C12.5408 5.51797 12.7464 5.43372 12.9604 5.43451C13.1744 5.43531 13.3793 5.52108 13.5301 5.67296C13.6808 5.82485 13.7651 6.0304 13.7643 6.2444C13.7635 6.45839 13.6777 6.66331 13.5258 6.81407C13.374 6.96483 13.1684 7.04908 12.9544 7.04829Z" fill="white"/>
</svg>
