<svg width="18" height="18" viewBox="0 0 18 18" fill="none" xmlns="http://www.w3.org/2000/svg">
<path fill-rule="evenodd" clip-rule="evenodd" d="M15.75 5.04853C15.248 5.26875 14.713 5.41472 14.1553 5.48559C14.7291 5.14303 15.167 4.60472 15.3728 3.95588C14.8379 4.27481 14.2473 4.50009 13.6178 4.62581C13.1099 4.08497 12.386 3.75 11.5962 3.75C10.064 3.75 8.83041 4.99369 8.83041 6.51834C8.83041 6.73772 8.84897 6.94866 8.89453 7.14947C6.59363 7.03725 4.55766 5.93447 3.18994 4.25456C2.95116 4.66884 2.81109 5.14303 2.81109 5.6535C2.81109 6.612 3.30469 7.46166 4.04044 7.95356C3.59578 7.94513 3.15956 7.81603 2.79 7.61269C2.79 7.62112 2.79 7.63209 2.79 7.64306C2.79 8.988 3.74934 10.1051 5.00738 10.3625C4.78209 10.4241 4.53656 10.4536 4.28175 10.4536C4.10456 10.4536 3.92569 10.4435 3.75778 10.4063C4.11637 11.5024 5.13394 12.3082 6.34387 12.3343C5.40225 13.0709 4.20666 13.5147 2.91234 13.5147C2.68538 13.5147 2.46769 13.5046 2.25 13.4767C3.47597 14.2673 4.92891 14.7188 6.49575 14.7188C11.5886 14.7188 14.373 10.5 14.373 6.84319C14.373 6.72084 14.3688 6.60272 14.3629 6.48544C14.9122 6.09562 15.3737 5.60878 15.75 5.04853Z" fill="white"/>
</svg>
