<svg width="18" height="18" viewBox="0 0 18 18" fill="none" xmlns="http://www.w3.org/2000/svg">
<path fill-rule="evenodd" clip-rule="evenodd" d="M15.1763 5.39437C14.8101 4.743 14.4127 4.62319 13.6035 4.57762C12.7952 4.52278 10.7626 4.5 9.00169 4.5C7.23741 4.5 5.20397 4.52278 4.3965 4.57678C3.58903 4.62319 3.19078 4.74216 2.82122 5.39437C2.44406 6.04491 2.25 7.16541 2.25 9.13809C2.25 9.13978 2.25 9.14062 2.25 9.14062C2.25 9.14231 2.25 9.14316 2.25 9.14316V9.14484C2.25 11.1091 2.44406 12.238 2.82122 12.8818C3.19078 13.5332 3.58819 13.6513 4.39566 13.7062C5.20397 13.7534 7.23741 13.7812 9.00169 13.7812C10.7626 13.7812 12.7952 13.7534 13.6043 13.707C14.4135 13.6522 14.8109 13.534 15.1771 12.8827C15.5576 12.2389 15.75 11.1099 15.75 9.14569C15.75 9.14569 15.75 9.14316 15.75 9.14147C15.75 9.14147 15.75 9.13978 15.75 9.13894C15.75 7.16541 15.5576 6.04491 15.1763 5.39437ZM7.3125 11.6719V6.60938L11.5312 9.14062L7.3125 11.6719Z" fill="white"/>
</svg>
